<?xml version="1.0" encoding="UTF-8" standalone="no"?>
<!-- Created with Inkscape (http://www.inkscape.org/) -->

<svg
   width="75.010056mm"
   height="12.317386mm"
   viewBox="0 0 75.010056 12.317385"
   version="1.1"
   id="svg1"
   xml:space="preserve"
   xmlns="http://www.w3.org/2000/svg"
   xmlns:svg="http://www.w3.org/2000/svg"><defs
     id="defs1" /><g
     id="layer1"
     transform="translate(-58.668913,-59.049695)"><g
       id="g1"
       transform="matrix(0.96004111,0,0,0.96004111,4.4395908,2.7036184)"><g
         id="g2"><path
           style="font-size:13.2954px;font-family:Montserrat;-inkscape-font-specification:'Montserrat, @wght=550';font-variation-settings:'wght' 550;letter-spacing:-0.264583px;fill:#898b95;stroke-width:0.352778"
           d="m 56.486458,68.862297 v -9.30678 h 3.988619 q 1.502381,0 2.63249,0.584998 1.143404,0.584997 1.781583,1.635334 0.638179,1.037041 0.638179,2.433058 0,1.396017 -0.638179,2.446354 -0.638179,1.037041 -1.781583,1.622038 -1.130109,0.584998 -2.63249,0.584998 z m 1.515675,-1.316245 h 2.393172 q 1.103518,0 1.901242,-0.412157 0.81102,-0.425453 1.249768,-1.169995 0.452043,-0.757838 0.452043,-1.754993 0,-1.01045 -0.452043,-1.754993 -0.438748,-0.744542 -1.249768,-1.156699 -0.797724,-0.425453 -1.901242,-0.425453 h -2.393172 z m 8.191295,3.975325 q -0.452044,0 -0.864201,-0.106363 -0.412158,-0.09307 -0.691361,-0.305794 l 0.452044,-1.116814 q 0.385566,0.305794 1.01045,0.305794 0.478634,0 0.731247,-0.305794 0.265908,-0.292499 0.265908,-0.877496 v -7.325766 h 1.462494 v 7.285879 q 0,1.130109 -0.611589,1.781584 -0.611588,0.66477 -1.754992,0.66477 z m 1.635334,-10.995296 q -0.412157,0 -0.691361,-0.265908 -0.265908,-0.265908 -0.265908,-0.651474 0,-0.385567 0.265908,-0.651475 0.279204,-0.265908 0.691361,-0.265908 0.412157,0 0.678065,0.252613 0.279204,0.252613 0.279204,0.638179 0,0.398862 -0.265908,0.678065 -0.265908,0.265908 -0.691361,0.265908 z m 7.140949,8.336216 v -1.462494 l -0.06648,-0.292499 v -2.526126 q 0,-0.757837 -0.465339,-1.18329 -0.452044,-0.425453 -1.369426,-0.425453 -0.611589,0 -1.196586,0.199431 -0.584998,0.186136 -0.997155,0.518521 l -0.598293,-1.090223 q 0.558406,-0.438748 1.32954,-0.66477 0.784428,-0.226022 1.635334,-0.226022 1.489084,0 2.300104,0.731247 0.824315,0.717952 0.824315,2.220332 v 4.201346 z m -2.246923,0.07977 q -0.797724,0 -1.396017,-0.265908 -0.598293,-0.265908 -0.930678,-0.744542 -0.319089,-0.478634 -0.319089,-1.090223 0,-0.584997 0.279203,-1.050336 0.279203,-0.478635 0.917383,-0.757838 0.638179,-0.292499 1.701811,-0.292499 h 2.140559 v 1.050337 h -2.074082 q -0.904087,0 -1.209882,0.292499 -0.305794,0.292498 -0.305794,0.704656 0,0.478634 0.385567,0.757837 0.385566,0.279204 1.063632,0.279204 0.66477,0 1.18329,-0.292499 0.518521,-0.292499 0.744543,-0.864201 l 0.265908,1.01045 q -0.252613,0.598293 -0.877497,0.930678 -0.624883,0.332385 -1.568857,0.332385 z m 5.62527,-0.07977 v -7.073153 h 1.396017 v 1.887947 l -0.239317,-0.584997 q 0.358976,-0.66477 1.063632,-1.023746 0.717952,-0.358976 1.64863,-0.358976 0.864201,0 1.528971,0.332385 0.66477,0.332385 1.050336,1.023746 0.385567,0.678065 0.385567,1.741697 v 4.055097 H 83.7194 V 64.98004 q 0,-0.983859 -0.478635,-1.475789 -0.465339,-0.49193 -1.32954,-0.49193 -0.624883,0 -1.103518,0.252613 -0.478634,0.252612 -0.744542,0.744542 -0.252613,0.49193 -0.252613,1.236472 v 3.616349 z m 11.954556,2.65908 q -0.970564,0 -1.901242,-0.265908 -0.930678,-0.252613 -1.528971,-0.757838 l 0.704656,-1.130109 q 0.478634,0.398862 1.196586,0.638179 0.717951,0.239318 1.475789,0.239318 1.209882,0 1.768288,-0.558407 0.571703,-0.558407 0.571703,-1.688516 V 66.62867 l 0.132954,-1.50238 -0.06648,-1.515676 v -1.82147 h 1.396016 v 6.049407 q 0,1.901242 -0.957268,2.792034 -0.957269,0.890792 -2.792034,0.890792 z m -0.14625,-2.964874 q -1.037041,0 -1.861356,-0.425453 -0.811019,-0.438748 -1.289653,-1.209881 -0.465339,-0.771133 -0.465339,-1.794879 0,-1.023746 0.465339,-1.794879 0.478634,-0.771133 1.289653,-1.196586 0.824315,-0.425453 1.861356,-0.425453 0.890792,0 1.622039,0.358976 0.744543,0.358976 1.196586,1.116813 0.452044,0.757838 0.452044,1.941129 0,1.18329 -0.452044,1.941128 -0.452043,0.757838 -1.196586,1.130109 -0.731247,0.358976 -1.622039,0.358976 z m 0.159545,-1.276359 q 0.678066,0 1.196586,-0.265907 0.518521,-0.279204 0.81102,-0.757838 0.292498,-0.49193 0.292498,-1.130109 0,-0.638179 -0.292498,-1.116814 -0.292499,-0.49193 -0.81102,-0.757838 -0.51852,-0.265908 -1.196586,-0.265908 -0.66477,0 -1.196586,0.265908 -0.51852,0.265908 -0.811019,0.757838 -0.292499,0.478635 -0.292499,1.116814 0,0.638179 0.292499,1.130109 0.292499,0.478634 0.811019,0.757838 0.531816,0.265907 1.196586,0.265907 z m 8.882646,1.661925 q -1.076928,0 -1.914538,-0.465339 -0.83761,-0.465339 -1.32954,-1.276358 -0.478634,-0.824315 -0.478634,-1.874651 0,-1.063632 0.478634,-1.874652 0.49193,-0.811019 1.32954,-1.276358 0.83761,-0.465339 1.914538,-0.465339 1.076925,0 1.914535,0.465339 0.85091,0.465339 1.32954,1.276358 0.47864,0.81102 0.47864,1.874652 0,1.050336 -0.47864,1.874651 -0.47863,0.811019 -1.32954,1.276358 -0.83761,0.465339 -1.914535,0.465339 z m 0,-1.276358 q 0.651474,0 1.156695,-0.279203 0.50523,-0.292499 0.79773,-0.824315 0.2925,-0.531816 0.2925,-1.236472 0,-0.717952 -0.2925,-1.236472 -0.2925,-0.531816 -0.79773,-0.81102 -0.505221,-0.292499 -1.1434,-0.292499 -0.651474,0 -1.1567,0.292499 -0.505225,0.279204 -0.811019,0.81102 -0.292499,0.51852 -0.292499,1.236472 0,0.704656 0.292499,1.236472 0.305794,0.531816 0.811019,0.824315 0.505226,0.279203 1.143405,0.279203 z"
           id="text1"
           aria-label="Django" /><path
           style="font-size:13.2954px;font-family:Montserrat;-inkscape-font-specification:'Montserrat, @wght=670';font-variation-settings:'wght' 670;letter-spacing:0px;fill:#0b5af5;stroke-width:0.352778"
           d="m 104.47792,68.862297 v -9.30678 h 1.67522 l 4.00191,6.634405 h -0.89079 l 3.92214,-6.634405 h 1.67522 l 0.0133,9.30678 h -1.90124 l -0.0133,-6.368496 h 0.37227 l -3.20419,5.358046 h -0.91738 l -3.25738,-5.358046 h 0.43875 v 6.368496 z m 15.27642,0 -4.02851,-9.30678 h 2.19374 l 3.53658,8.29633 h -1.27636 l 3.60305,-8.29633 h 2.00761 l -4.02851,9.30678 z m 6.87372,0 v -9.30678 h 3.96203 q 1.24976,0 2.15385,0.412158 0.90409,0.398862 1.38272,1.156699 0.49193,0.744543 0.49193,1.781584 0,1.037041 -0.49193,1.794879 -0.47863,0.744542 -1.38272,1.1567 -0.90409,0.398862 -2.15385,0.398862 h -2.83193 l 0.90409,-0.917383 v 3.523281 z m 2.03419,-3.297259 -0.90409,-0.970564 h 2.73886 q 1.03704,0 1.55556,-0.438748 0.51852,-0.452044 0.51852,-1.249768 0,-0.797724 -0.51852,-1.236472 -0.51852,-0.452044 -1.55556,-0.452044 h -2.73886 l 0.90409,-0.970564 z"
           id="text1-5"
           aria-label="MVP" /></g></g></g></svg>
