<?xml version="1.0" encoding="UTF-8" standalone="no"?>
<!-- Created with Inkscape (http://www.inkscape.org/) -->

<svg
   width="133.90852mm"
   height="52.372322mm"
   viewBox="0 0 133.90852 52.372322"
   version="1.1"
   id="svg5"
   xml:space="preserve"
   inkscape:version="1.2.1 (9c6d41e410, 2022-07-14)"
   sodipodi:docname="dac_logo.svg"
   inkscape:export-filename="dac\static\dac\logo_bg_white.svg"
   inkscape:export-xdpi="96"
   inkscape:export-ydpi="96"
   xmlns:inkscape="http://www.inkscape.org/namespaces/inkscape"
   xmlns:sodipodi="http://sodipodi.sourceforge.net/DTD/sodipodi-0.dtd"
   xmlns="http://www.w3.org/2000/svg"
   xmlns:svg="http://www.w3.org/2000/svg"><sodipodi:namedview
     id="namedview7"
     pagecolor="#ffffff"
     bordercolor="#000000"
     borderopacity="0.25"
     inkscape:showpageshadow="2"
     inkscape:pageopacity="0.0"
     inkscape:pagecheckerboard="0"
     inkscape:deskcolor="#d1d1d1"
     inkscape:document-units="mm"
     showgrid="false"
     inkscape:zoom="1.0343421"
     inkscape:cx="604.73223"
     inkscape:cy="516.2702"
     inkscape:window-width="2880"
     inkscape:window-height="1706"
     inkscape:window-x="-11"
     inkscape:window-y="-11"
     inkscape:window-maximized="1"
     inkscape:current-layer="layer1" /><defs
     id="defs2" /><g
     inkscape:label="Layer 1"
     inkscape:groupmode="layer"
     id="layer1"
     transform="translate(-38.045731,-114.91866)"><g
       id="g361"
       transform="translate(0,68.79167)"><g
         id="g344"><rect
           style="fill:#ffffff;fill-opacity:1;fill-rule:evenodd;stroke-width:0.216;stroke-linejoin:bevel;stop-color:#000000"
           id="rect1005-3"
           width="133.90854"
           height="52.372318"
           x="38.045731"
           y="46.126984" /></g><path
         id="rect410-6"
         style="fill:#02332a;fill-opacity:1;fill-rule:evenodd;stroke-width:0.216;stroke-linejoin:bevel;stop-color:#000000"
         d="m 60.288085,50.109589 c -0.71233,0.01982 -1.47885,0.241426 -2.70387,0.720781 -1.40684,0.550503 -2.53457,0.984875 -6.7647,2.604782 -2.11861,0.811307 -4.12442,1.598144 -4.45722,1.748886 -1.29742,0.587664 -2.27789,1.621616 -2.63521,2.778479 -0.18336,0.59364 -0.18892,0.861763 -0.18892,9.130446 0,9.343366 0.0213,9.795701 0.55785,11.869217 0.74401,2.87508 1.77216,4.96037 3.5104,7.11989 0.86802,1.0784 2.22804,2.43238 3.39868,3.38384 2.33753,1.89987 6.38437,4.14062 8.73999,4.83913 0.91035,0.26995 0.79831,0.26246 1.44268,0.0946 0.29166,-0.076 0.96778,-0.3092 1.50282,-0.51813 4.08094,-1.59354 8.54628,-4.77923 10.8656,-7.75234 1.69853,-2.17733 2.99329,-4.94857 3.51596,-7.5252 0.37042,-1.82604 0.39142,-2.504266 0.363,-11.640953 l -0.0275,-8.831622 -0.25424,-0.543005 c -0.28989,-0.618641 -1.11355,-1.528002 -1.75854,-1.94189 -0.24038,-0.154247 -1.68253,-0.763666 -3.20494,-1.353981 -1.5224,-0.590307 -4.36868,-1.693863 -6.32487,-2.452229 -1.9562,-0.758374 -3.87579,-1.460531 -4.26608,-1.560344 -0.47563,-0.121647 -0.88352,-0.182237 -1.31092,-0.170357 z m 0.13028,2.071423 c 0.22106,-0.0072 0.42227,0.04187 0.84141,0.163678 0.61998,0.180146 8.39235,3.146428 11.5849,4.421217 1.62674,0.649554 2.23015,1.106716 2.45075,1.857268 0.074,0.251711 0.0939,2.984812 0.069,9.467088 -0.0342,8.917972 -0.0392,9.130885 -0.23494,9.928057 -0.96887,3.94616 -3.09534,7.30261 -6.2243,9.82415 -1.42978,1.15222 -3.22823,2.31861 -4.83951,3.13924 -1.40932,0.71777 -3.0835,1.40128 -3.40053,1.38812 -0.0927,-0.004 -0.44355,-0.10429 -0.77943,-0.22306 -1.03814,-0.36715 -2.48905,-1.04689 -3.8333,-1.79603 -4.07793,-2.27259 -7.00102,-5.11857 -8.66428,-8.43601 -0.98848,-1.97157 -1.4749,-3.63892 -1.68653,-5.778169 -0.133,-1.344372 -0.12936,-17.131179 0.004,-17.611741 0.2008,-0.723144 1.02863,-1.306721 2.84936,-2.00796 0.47029,-0.181123 2.2715,-0.871351 4.00256,-1.533991 1.73105,-0.662633 3.9718,-1.521933 4.97943,-1.909598 1.00763,-0.387666 2.09248,-0.758094 2.41066,-0.823223 0.19831,-0.04058 0.33799,-0.06486 0.47063,-0.06902 z m 0.003,5.825303 c -0.44108,-0.0029 -0.84853,0.0204 -1.12349,0.07385 -3.02801,0.588555 -5.24006,3.189968 -5.40181,6.352342 -0.10485,2.049875 0.57671,3.871698 1.95154,5.216975 1.56531,1.531657 3.91619,2.186627 6.17975,1.721428 2.58618,-0.531513 4.46059,-2.338332 5.10563,-4.921164 0.28314,-1.133743 0.21936,-2.822456 -0.14735,-3.902712 -0.73246,-2.157814 -2.38688,-3.738132 -4.53252,-4.330278 -0.46767,-0.129066 -1.29659,-0.205909 -2.03171,-0.210441 z m 1.06002,15.403731 c -0.49244,1.87e-4 -1.03713,0.0036 -1.64348,0.01 -3.95828,0.04022 -4.27315,0.0748 -5.45674,0.596074 -1.46177,0.643794 -3.35373,2.31537 -4.16401,3.67928 -1.26005,2.12098 -1.13008,4.22147 0.3886,6.27292 1.16425,1.57267 3.76556,3.6329 6.64519,5.26337 1.08992,0.61712 2.84775,1.35793 3.22498,1.35917 0.14373,4.7e-4 0.52453,-0.0867 0.84586,-0.19374 2.68406,-0.89423 7.51621,-4.25367 9.1735,-6.37758 0.80214,-1.02798 1.31784,-2.37196 1.32095,-3.44211 0.007,-2.2796 -1.97918,-5.01941 -4.55483,-6.284051 -1.45249,-0.713169 -2.33297,-0.884697 -5.78008,-0.883369 z" /><g
         id="g2300"
         transform="matrix(0.90179168,0,0,0.90179168,23.480757,25.19161)"
         style="stroke-width:1.1089"><text
           xml:space="preserve"
           style="font-size:6.84142px;font-family:'Segoe UI';-inkscape-font-specification:'Segoe UI, Normal';fill:#02332a;fill-opacity:1;fill-rule:evenodd;stroke-width:0.239523;stroke-linejoin:bevel;stop-color:#000000"
           x="70.487206"
           y="53.658855"
           id="text882-6"><tspan
             sodipodi:role="line"
             id="tspan880-0"
             style="font-style:normal;font-variant:normal;font-weight:600;font-stretch:normal;font-size:26.0763px;font-family:'Segoe UI';-inkscape-font-specification:'Segoe UI Semi-Bold';font-variant-ligatures:normal;font-variant-caps:normal;font-variant-numeric:normal;font-variant-east-asian:normal;stroke-width:0.239523"
             x="70.487206"
             y="53.658855">Django</tspan></text><text
           xml:space="preserve"
           style="font-style:normal;font-variant:normal;font-weight:900;font-stretch:normal;font-size:11.0883px;font-family:'Segoe UI';-inkscape-font-specification:'Segoe UI Heavy';font-variant-ligatures:normal;font-variant-caps:normal;font-variant-numeric:normal;font-variant-east-asian:normal;fill:#02332a;fill-opacity:1;fill-rule:evenodd;stroke-width:0.239523;stroke-linejoin:bevel;stop-color:#000000"
           x="71.590492"
           y="69.854721"
           id="text936-3-6"><tspan
             sodipodi:role="line"
             id="tspan934-7-6"
             style="font-style:normal;font-variant:normal;font-weight:600;font-stretch:normal;font-family:'Segoe UI';-inkscape-font-specification:'Segoe UI Semi-Bold';stroke-width:0.239523"
             x="71.590492"
             y="69.854721">Accounts Center</tspan></text></g></g></g></svg>
