<svg viewBox="0 0 33.905769 44.410038"
   version="1.1"
   xml:space="preserve"
   xmlns="http://www.w3.org/2000/svg"
   xmlns:svg="http://www.w3.org/2000/svg"><g
     transform="translate(-86.645578,-19.74596)"><path
       id="rect410-6-1"
       d="m 103.39549,19.747428 c -0.71233,0.0198 -1.47885,0.24143 -2.70387,0.72078 -1.406838,0.5505 -2.534568,0.98488 -6.764698,2.60478 -2.11861,0.81131 -4.12442,1.59815 -4.45722,1.74889 -1.29742,0.58766 -2.27789,1.62161 -2.63521,2.77848 -0.18336,0.59364 -0.18892,0.86176 -0.18892,9.13044 0,9.34337 0.0213,9.7957 0.55785,11.86922 0.74401,2.87508 1.77216,4.96037 3.5104,7.11989 0.86802,1.0784 2.22804,2.43238 3.39868,3.38384 2.33753,1.89987 6.384368,4.14062 8.739988,4.83913 0.91035,0.26995 0.79831,0.26246 1.44268,0.0946 0.29166,-0.076 0.96778,-0.3092 1.50282,-0.51813 4.08094,-1.59354 8.54628,-4.77923 10.8656,-7.75234 1.69853,-2.17733 2.99329,-4.94857 3.51596,-7.5252 0.37042,-1.82604 0.39142,-2.50427 0.363,-11.64095 l -0.0275,-8.83162 -0.25424,-0.54301 c -0.28989,-0.61864 -1.11355,-1.528 -1.75854,-1.94189 -0.24038,-0.15425 -1.68253,-0.76367 -3.20494,-1.35398 -1.5224,-0.59031 -4.36868,-1.69386 -6.32487,-2.45223 -1.9562,-0.75837 -3.87579,-1.46053 -4.26608,-1.56034 -0.47563,-0.12165 -0.88352,-0.18224 -1.31092,-0.17036 z m 0.13028,2.07142 c 0.22106,-0.007 0.42227,0.0419 0.84141,0.16368 0.61998,0.18015 8.39235,3.14643 11.5849,4.42122 1.62674,0.64955 2.23015,1.10671 2.45075,1.85727 0.074,0.25171 0.0939,2.98481 0.069,9.46708 -0.0342,8.91798 -0.0392,9.13089 -0.23494,9.92806 -0.96887,3.94616 -3.09534,7.30261 -6.2243,9.82415 -1.42978,1.15222 -3.22823,2.31861 -4.83951,3.13924 -1.40932,0.71777 -3.0835,1.40128 -3.40053,1.38812 -0.0927,-0.004 -0.44355,-0.10429 -0.77943,-0.22306 -1.03814,-0.36715 -2.48905,-1.04689 -3.833298,-1.79603 -4.07793,-2.27259 -7.00102,-5.11857 -8.66428,-8.43601 -0.98848,-1.97157 -1.4749,-3.63892 -1.68653,-5.77817 -0.133,-1.34437 -0.12936,-17.13118 0.004,-17.61174 0.2008,-0.72314 1.02863,-1.30672 2.84936,-2.00796 0.47029,-0.18112 2.2715,-0.87135 4.00256,-1.53399 1.73105,-0.66263 3.9718,-1.52193 4.979428,-1.9096 1.00763,-0.38766 2.09248,-0.75809 2.41066,-0.82322 0.19831,-0.0406 0.33799,-0.0649 0.47063,-0.069 z m 0.003,5.82531 c -0.44108,-0.003 -0.84853,0.0204 -1.12349,0.0738 -3.028008,0.58855 -5.240058,3.18996 -5.401808,6.35234 -0.10485,2.04987 0.57671,3.8717 1.95154,5.21697 1.565308,1.53166 3.916188,2.18663 6.179748,1.72143 2.58618,-0.53151 4.46059,-2.33833 5.10563,-4.92116 0.28314,-1.13375 0.21936,-2.82246 -0.14735,-3.90272 -0.73246,-2.15781 -2.38688,-3.73813 -4.53252,-4.33027 -0.46767,-0.12907 -1.29659,-0.20591 -2.03171,-0.21044 z m 1.06002,15.40373 c -0.49244,1.8e-4 -1.03713,0.004 -1.64348,0.01 -3.958278,0.0402 -4.273148,0.0748 -5.456738,0.59607 -1.46177,0.64379 -3.35373,2.31537 -4.16401,3.67928 -1.26005,2.12098 -1.13008,4.22147 0.3886,6.27292 1.16425,1.57267 3.76556,3.6329 6.645188,5.26337 1.08992,0.61712 2.84775,1.35793 3.22498,1.35917 0.14373,4.7e-4 0.52453,-0.0867 0.84586,-0.19374 2.68406,-0.89423 7.51621,-4.25367 9.1735,-6.37758 0.80214,-1.02798 1.31784,-2.37196 1.32095,-3.44211 0.007,-2.2796 -1.97918,-5.01941 -4.55483,-6.28405 -1.45249,-0.71317 -2.33297,-0.8847 -5.78008,-0.88337 z" /></g></svg>
